<svg width="290" height="70" viewBox="0 0 290 70" fill="none" xmlns="http://www.w3.org/2000/svg">
	<path d="M23.392 51.1998H64.168L56.416 64.9998H22.264C9.40001 64.9998 0.76001 59.3598 0.76001 46.4958V0.799805H16V43.8078C16 48.2238 18.976 51.1998 23.392 51.1998Z" fill="white" />
	<path d="M86.5075 67.9998V0.799805H101.748V67.9998H86.5075Z" fill="white" />
	<path d="M177.522 57.3438C174.162 64.9278 170.154 69.9198 161.898 69.9198H161.706C153.45 69.9198 149.442 64.9278 146.082 57.3438L121.026 0.799805H137.994L161.802 56.8638L185.61 0.799805H202.578L177.522 57.3438Z" fill="white" />
	<path d="M210 35.368C210 14.536 222.864 1 242.352 1H256.416C276.384 1 289.728 14.344 289.728 34.792C289.728 55.624 276.864 69.16 257.376 69.16H243.312C223.344 69.16 210 55.816 210 35.368ZM241.368 14.8C231.384 14.8 225.24 24.424 225.24 34.888C225.24 45.64 231.384 55.36 241.368 55.36H258.36C268.344 55.36 274.488 45.736 274.488 35.272C274.488 24.52 268.344 14.8 258.36 14.8H241.368Z" fill="white" />
</svg>
