<svg width="73" height="15" viewBox="0 0 73 15" fill="none" xmlns="http://www.w3.org/2000/svg">
	<path d="M62.9883 14.9142C60.9304 14.9142 58.8725 14.9142 56.8938 14.9142C56.4189 14.9142 55.944 14.8357 55.4691 14.7572C54.2819 14.4432 53.807 13.5798 53.7278 12.4808C53.6487 11.1463 53.7278 9.81169 53.7278 8.47719C53.7278 6.67168 53.7278 4.86626 53.7278 3.06076C53.7278 2.43276 53.807 1.88325 54.2027 1.33375C54.6776 0.627251 55.3899 0.313171 56.1814 0.234671C56.6563 0.156171 57.0521 0.15625 57.527 0.15625C61.3261 0.15625 65.1253 0.15625 68.8453 0.15625C69.3202 0.15625 69.7951 0.234751 70.1909 0.313251C71.2989 0.627252 71.9321 1.49075 72.0113 2.66826C72.0113 4.31676 72.0113 5.96526 72.0113 7.61377C72.0113 9.18377 72.0113 10.7537 72.0113 12.4022C72.0113 12.8732 71.9321 13.2658 71.7738 13.6583C71.4572 14.3648 70.8241 14.6787 70.1117 14.9142C69.8743 14.9927 69.6368 14.9927 69.3994 14.9927C67.1832 14.9142 65.0462 14.9142 62.9883 14.9142ZM57.2895 11.9313C61.0095 11.9313 64.6504 11.9313 68.3704 11.9313C68.3704 8.86977 68.3704 5.88668 68.3704 2.82518C68.2913 2.82518 68.2121 2.82518 68.2121 2.82518C64.6504 2.82518 61.0887 2.82518 57.6061 2.82518C57.3687 2.82518 57.3687 2.90376 57.3687 3.06076C57.3687 5.57276 57.3687 8.08469 57.3687 10.5967C57.2895 11.0677 57.2895 11.5388 57.2895 11.9313Z" fill="white" />
	<path d="M27.4529 0.0854492C27.6112 0.0854492 27.6903 0.0854492 27.6903 0.0854492C28.7984 0.0854492 29.9065 0.0854492 31.0937 0.0854492C31.3312 0.0854492 31.4895 0.163949 31.5686 0.320949C32.1227 1.34145 32.7559 2.36195 33.3891 3.38245C34.6555 5.73746 35.9219 8.09246 37.1882 10.4475C37.1882 10.526 37.2674 10.526 37.3465 10.683C37.3465 10.6045 37.4257 10.6045 37.4257 10.526C38.2172 9.03447 39.0878 7.46446 39.8793 5.97296C40.75 4.48146 41.5415 2.98995 42.4121 1.49845C42.6495 1.10595 42.887 0.791949 43.1244 0.399448C43.2827 0.163948 43.441 0.0854492 43.6785 0.0854492C44.6283 0.0854492 45.4989 0.0854492 46.4487 0.0854492C46.5279 0.0854492 46.607 0.0854492 46.7653 0.0854492C46.6862 0.24245 46.6862 0.32095 46.607 0.47795C45.4989 2.59745 44.3908 4.71696 43.2036 6.75796C42.0163 8.87747 40.8291 11.0755 39.6419 13.195C39.3253 13.666 39.0087 14.2155 38.6921 14.6865C38.5338 14.922 38.3755 15.0005 38.138 15.0005C37.584 15.0005 37.0299 15.0005 36.4759 15.0005C36.1593 15.0005 36.001 14.8435 35.9219 14.6865C35.447 13.9015 34.9721 13.1165 34.4972 12.253C32.5976 8.95597 30.698 5.73746 28.7984 2.44045C28.4027 1.73395 28.0069 1.10595 27.6112 0.399448C27.532 0.242448 27.532 0.163949 27.4529 0.0854492Z" fill="white" />
	<path d="M10.3686 11.8535C10.2103 12.1675 10.2103 12.4815 10.052 12.717C9.73536 13.345 9.33961 13.8945 9.02302 14.5225C8.94387 14.6795 8.78557 14.758 8.62727 14.758C5.93621 14.758 3.32426 14.758 0.633185 14.758C0.395737 14.758 0.237448 14.758 0 14.758C0 14.601 0 14.601 0 14.5225C0 9.81252 0 5.18101 0 0.471C0 0.078499 -1.93424e-05 0 0.474877 0C1.42467 0 2.37449 0 3.32428 0C3.56173 0 3.56172 0.0784996 3.56172 0.2355C3.56172 3.21851 3.56172 6.28001 3.56172 9.26302C3.56172 10.048 3.56172 10.833 3.56172 11.5395C3.56172 11.775 3.64086 11.8535 3.79916 11.8535C5.77789 11.8535 7.67749 11.8535 9.65621 11.8535C9.81451 11.8535 10.052 11.8535 10.3686 11.8535Z" fill="white" />
	<path d="M17.8679 7.30051C17.8679 4.94551 17.8679 2.5905 17.8679 0.2355C17.8679 -6.08267e-07 17.9471 0 18.1054 0C19.2135 0 20.2424 0 21.3505 0C21.5088 0 21.5088 0.0784996 21.5088 0.2355C21.5088 1.413 21.5088 2.51201 21.5088 3.68951C21.5088 7.22202 21.5088 10.7545 21.5088 14.287C21.5088 14.8365 21.4296 14.915 20.8756 14.915C20.005 14.915 19.1343 14.915 18.2637 14.915C18.0262 14.915 17.9471 14.8365 17.9471 14.601C17.9471 14.444 17.9471 14.287 17.9471 14.13C17.8679 11.8535 17.8679 9.57702 17.8679 7.30051Z" fill="white" />
</svg>
